<?xml version="1.0" encoding="UTF-8"?>
<svg version="1.1" xmlns="http://www.w3.org/2000/svg" width="64" height="64">
	<path d="M0 0 C21.12 0 42.24 0 64 0 C64 21.12 64 42.24 64 64 C42.88 64 21.76 64 0 64 C0 42.88 0 21.76 0 0 Z " fill="#E1E5E6" transform="translate(0,0)"/>
	<path d="M0 0 C7.34540978 -0.09281004 14.69069248 -0.1638202 22.03657055 -0.20724869 C25.44784999 -0.22809576 28.85872734 -0.25635897 32.26977539 -0.30175781 C36.19412369 -0.35365959 40.11831096 -0.37296922 44.04296875 -0.390625 C45.26396774 -0.41127014 46.48496674 -0.43191528 47.7429657 -0.45318604 C48.8837709 -0.45348816 50.02457611 -0.45379028 51.19995117 -0.45410156 C52.20144699 -0.46298401 53.20294281 -0.47186646 54.23478699 -0.48101807 C57.78309409 0.13622184 59.46200935 1.48981162 62 4 C62.56762695 6.84082031 62.56762695 6.84082031 62.48828125 10.078125 C62.47216797 11.23828125 62.45605469 12.3984375 62.43945312 13.59375 C62.37661133 15.40359375 62.37661133 15.40359375 62.3125 17.25 C62.28994141 18.47203125 62.26738281 19.6940625 62.24414062 20.953125 C62.18521758 23.96998502 62.10299265 26.98437515 62 30 C55.50993885 25.81172549 49.71555967 21.34247569 43.89453125 16.26953125 C38.70809512 12.20297337 34.64832636 10.27472803 28 11 C25.23558031 12.40759341 25.23558031 12.40759341 23 14 C22.34 14 21.68 14 21 14 C18.95101713 18.21896866 18.78792003 21.65372146 18.875 26.3125 C18.90207031 28.19388672 18.90207031 28.19388672 18.9296875 30.11328125 C18.95289062 31.06589844 18.97609375 32.01851562 19 33 C17.68 33 16.36 33 15 33 C15.9858505 36.19937243 17.01986011 39.38122563 18.0625 42.5625 C18.33771484 43.45775391 18.61292969 44.35300781 18.89648438 45.27539062 C20.81900889 51.04296417 23.03968502 54.6930229 27.60717773 58.73803711 C28.06680908 59.15448486 28.52644043 59.57093262 29 60 C29 60.33 29 60.66 29 61 C25.4377769 61.11654436 21.87604658 61.1873639 18.3125 61.25 C17.30509766 61.28351562 16.29769531 61.31703125 15.25976562 61.3515625 C11.07464363 61.40681164 7.81448331 61.33446463 3.91796875 59.734375 C-2.9695295 49.91513105 -0.22023168 33.22631557 -0.125 21.75 C-0.11495067 19.63672299 -0.10582827 17.52344136 -0.09765625 15.41015625 C-0.07579629 10.27332183 -0.04137377 5.13671279 0 0 Z " fill="#FAFBFC" transform="translate(0,0)"/>
	<path d="M0 0 C3.6455975 1.67697485 6.95171925 3.43429862 9.21875 6.8203125 C10.18849805 9.52590956 10.23003584 11.75576394 10.1875 14.625 C10.18105469 15.58664063 10.17460938 16.54828125 10.16796875 17.5390625 C10 20 10 20 9 22 C10.32 22.33 11.64 22.66 13 23 C12.46137794 28.92484261 11.29622483 38.70377517 7 43 C5.02 43 3.04 43 1 43 C-0.32 38.71 -1.64 34.42 -3 30 C-3.639375 31.588125 -4.27875 33.17625 -4.9375 34.8125 C-5.29714844 35.70582031 -5.65679687 36.59914062 -6.02734375 37.51953125 C-6.73613486 39.3270909 -7.3860247 41.15807409 -8 43 C-9.98 43 -11.96 43 -14 43 C-15.00577013 40.23113877 -16.00480147 37.46015896 -17 34.6875 C-17.28617188 33.90181641 -17.57234375 33.11613281 -17.8671875 32.30664062 C-18.13789063 31.54931641 -18.40859375 30.79199219 -18.6875 30.01171875 C-19.06455078 28.96697388 -19.06455078 28.96697388 -19.44921875 27.90112305 C-20 26 -20 26 -20 23 C-18.68 23 -17.36 23 -16 23 C-16.15984375 22.44183594 -16.3196875 21.88367188 -16.484375 21.30859375 C-17.61221409 16.25895055 -17.73687451 10.99389574 -15.9375 6.125 C-11.40329153 1.15199716 -6.68712564 -1.05586194 0 0 Z " fill="#C0D8E3" transform="translate(35,10)"/>
	<path d="M0 0 C2.5 0.125 2.5 0.125 3.5 1.125 C3.73255814 5.65988372 3.73255814 5.65988372 2.5 8.125 C3.24214189 10.55224053 4.03942873 12.88171805 4.9375 15.25 C5.30198242 16.23806641 5.30198242 16.23806641 5.67382812 17.24609375 C6.27578321 18.87491338 6.88702412 20.50029575 7.5 22.125 C9.48 17.67 9.48 17.67 11.5 13.125 C13.15 13.125 14.8 13.125 16.5 13.125 C15.20024676 19.84039173 13.20071112 25.84519113 10.5 32.125 C8.52 32.125 6.54 32.125 4.5 32.125 C3.18 27.835 1.86 23.545 0.5 19.125 C-0.139375 20.713125 -0.77875 22.30125 -1.4375 23.9375 C-1.79714844 24.83082031 -2.15679687 25.72414063 -2.52734375 26.64453125 C-3.23613486 28.4520909 -3.8860247 30.28307409 -4.5 32.125 C-6.48 32.125 -8.46 32.125 -10.5 32.125 C-11.50380916 29.33464954 -12.5031945 26.54285145 -13.5 23.75 C-13.78617188 22.9559375 -14.07234375 22.161875 -14.3671875 21.34375 C-14.63789063 20.58320312 -14.90859375 19.82265625 -15.1875 19.0390625 C-15.43886719 18.3373291 -15.69023437 17.6355957 -15.94921875 16.91259766 C-16.5 15.125 -16.5 15.125 -16.5 13.125 C-14.85 13.125 -13.2 13.125 -11.5 13.125 C-8.5 19.75 -8.5 19.75 -8.5 23.125 C-7.84 23.125 -7.18 23.125 -6.5 23.125 C-6.36722656 22.41988281 -6.23445313 21.71476562 -6.09765625 20.98828125 C-5.48596011 18.05773701 -4.7368647 15.1971639 -3.9375 12.3125 C-3.66808594 11.33667969 -3.39867187 10.36085938 -3.12109375 9.35546875 C-2.91613281 8.61941406 -2.71117187 7.88335937 -2.5 7.125 C-2.83 6.795 -3.16 6.465 -3.5 6.125 C-3.625 3.625 -3.625 3.625 -3.5 1.125 C-2.5 0.125 -2.5 0.125 0 0 Z " fill="#0990D0" transform="translate(31.5,20.875)"/>
	<path d="M0 0 C3.64487963 1.67664463 6.96813033 3.42539369 9.203125 6.8359375 C10.78016232 11.1186761 10.64660128 15.52551915 10 20 C8.14990787 23.6717213 5.95412948 25.68195684 2 27 C2.45675656 24.03108238 3.26566112 22.6296845 5.0625 20.125 C7.26922993 16.56575817 7.76804394 15.09623433 7 11 C5.15658574 8.08182761 3.13795376 5.56897688 0 4 C-4.18144011 3.60552452 -6.30946048 3.54964814 -9.875 5.875 C-12.69974128 8.69974128 -13.20274282 10.35433771 -13.375 14.25 C-13.3632677 17.88114708 -12.8507204 19.78015015 -10.5 22.5625 C-9.2625 23.7690625 -9.2625 23.7690625 -8 25 C-8.66 25.66 -9.32 26.32 -10 27 C-13.28428272 24.58000221 -15.49542926 22.81295323 -17 19 C-17.55981695 14.52873471 -17.50461498 10.36542876 -15.9375 6.125 C-11.40329153 1.15199716 -6.68712564 -1.05586194 0 0 Z " fill="#1094D2" transform="translate(35,10)"/>
	<path d="M0 0 C2.31 0 4.62 0 7 0 C7 21.12 7 42.24 7 64 C-14.12 64 -35.24 64 -57 64 C-57 61.69 -57 59.38 -57 57 C-55.87392334 58.21804321 -55.87392334 58.21804321 -54.72509766 59.46069336 C-50.14474902 63.24863951 -45.09178622 62.69931699 -39.3984375 62.62890625 C-38.28441559 62.63131821 -37.17039368 62.63373016 -36.02261353 62.63621521 C-33.67421905 62.63523799 -31.32580119 62.62187452 -28.97753906 62.59692383 C-25.38006631 62.56254841 -21.78504131 62.57629016 -18.1875 62.59570312 C-15.90363537 62.58880647 -13.61977707 62.57913573 -11.3359375 62.56640625 C-10.25984222 62.57136612 -9.18374695 62.57632599 -8.07504272 62.58143616 C-7.07365265 62.56559982 -6.07226257 62.54976349 -5.04052734 62.53344727 C-4.1614975 62.52724869 -3.28246765 62.52105011 -2.37680054 62.5146637 C0.76579709 61.8341771 1.967703 60.43259147 4 58 C5.21075308 55.57849384 5.15266843 53.98458579 5.19287109 51.27832031 C5.20893402 50.29679993 5.22499695 49.31527954 5.24154663 48.30401611 C5.28599233 43.80815287 5.32706981 39.31243787 5.35009766 34.81640625 C5.36664991 32.44586362 5.39392998 30.07537076 5.43212891 27.70507812 C5.48692838 24.28749695 5.50877824 20.87108653 5.5234375 17.453125 C5.54610687 16.39667786 5.56877625 15.34023071 5.59213257 14.25177002 C5.58962322 7.77013947 5.58962322 7.77013947 2.46728516 2.28417969 C1.65308105 1.53040039 0.83887695 0.77662109 0 0 Z " fill="#010101" transform="translate(57,0)"/>
	<path d="M0 0 C0.33 0 0.66 0 1 0 C1.08132187 2.56314499 1.14064175 5.12368418 1.1875 7.6875 C1.21263672 8.40873047 1.23777344 9.12996094 1.26367188 9.87304688 C1.32667231 14.47207891 0.88572296 17.37434807 -2 21 C-5.24701668 23.16467779 -6.18650737 23.25814232 -9.94287109 23.29052734 C-10.94756439 23.30328705 -11.95225769 23.31604675 -12.98739624 23.32919312 C-14.07178986 23.33141876 -15.15618347 23.33364441 -16.2734375 23.3359375 C-17.94728012 23.3459227 -17.94728012 23.3459227 -19.65493774 23.35610962 C-22.01701202 23.3662409 -24.37911495 23.37092649 -26.74121094 23.37060547 C-30.35399624 23.3749746 -33.96555625 23.41127988 -37.578125 23.44921875 C-39.87239165 23.45508757 -42.16666411 23.45905652 -44.4609375 23.4609375 C-46.08145523 23.48249405 -46.08145523 23.48249405 -47.73471069 23.50448608 C-55.2387618 23.458814 -55.2387618 23.458814 -59.15869141 21.09619141 C-62.22957914 17.60021659 -62.11126856 15.45924506 -62.0625 10.875 C-62.05347656 9.77929688 -62.04445312 8.68359375 -62.03515625 7.5546875 C-62.02355469 6.71164063 -62.01195312 5.86859375 -62 5 C-61.67 5 -61.34 5 -61 5 C-60.90203125 5.83144531 -60.8040625 6.66289063 -60.703125 7.51953125 C-60.55359375 8.60621094 -60.4040625 9.69289063 -60.25 10.8125 C-60.11078125 11.89144531 -59.9715625 12.97039063 -59.828125 14.08203125 C-58.84278554 17.55395851 -58.03513942 18.17952954 -55 20 C-52.78227739 20.44188361 -52.78227739 20.44188361 -50.40258789 20.37231445 C-49.49807388 20.37854324 -48.59355988 20.38477203 -47.66163635 20.39118958 C-46.69177292 20.38197983 -45.72190948 20.37277008 -44.72265625 20.36328125 C-43.21740639 20.36402901 -43.21740639 20.36402901 -41.68174744 20.36479187 C-39.56100483 20.36245302 -37.44025936 20.35273564 -35.31958008 20.33618164 C-32.07803433 20.31261295 -28.83731267 20.31561945 -25.59570312 20.32226562 C-23.53384927 20.31668782 -21.47199888 20.3095773 -19.41015625 20.30078125 C-18.44231705 20.30169266 -17.47447784 20.30260406 -16.47731018 20.30354309 C-9.99458534 20.28002978 -9.99458534 20.28002978 -4 18 C-0.96055986 14.22250597 -0.55318605 10.95308379 -0.3125 6.1875 C-0.24675781 5.02605469 -0.18101563 3.86460938 -0.11328125 2.66796875 C-0.07589844 1.78753906 -0.03851563 0.90710937 0 0 Z " fill="#C9C9CA" transform="translate(62,40)"/>
	<path d="M0 0 C2.875 2.4375 2.875 2.4375 5 5 C5.33 5.33 5.66 5.66 6 6 C6.44009364 9.87282401 6.28338319 11.56547911 4.125 14.875 C3.42375 15.57625 2.7225 16.2775 2 17 C1.34 17 0.68 17 0 17 C0.875 13.125 0.875 13.125 2 12 C2.29573841 9.19048514 2.38243085 7.58371024 0.8125 5.1875 C-1.69739323 3.54308719 -3.06232599 3.4124652 -6 4 C-8.09762034 6.10700447 -8.09762034 6.10700447 -9 9 C-8.26145768 11.63813861 -8.26145768 11.63813861 -7 14 C-7 14.99 -7 15.98 -7 17 C-10.875 15.125 -10.875 15.125 -12 14 C-12.68733452 9.24757272 -12.65805254 5.97710832 -9.9375 1.9375 C-6.21772362 -0.51596953 -4.3766411 -0.78154305 0 0 Z " fill="#1294D1" transform="translate(35,15)"/>
	<path d="M0 0 C0.33 0 0.66 0 1 0 C1.25523438 1.01320313 1.25523438 1.01320313 1.515625 2.046875 C3.30038593 8.88111967 3.30038593 8.88111967 8 14 C7.34 14.66 6.68 15.32 6 16 C0.16242661 11.69863014 0.16242661 11.69863014 -1 8 C-1.1875 4.3125 -1.1875 4.3125 -1 1 C-0.67 0.67 -0.34 0.34 0 0 Z " fill="#0890D0" transform="translate(19,21)"/>
	<path d="M0 0 C1.4540625 0.0309375 1.4540625 0.0309375 2.9375 0.0625 C2.9375 0.3925 2.9375 0.7225 2.9375 1.0625 C1.2875 1.0625 -0.3625 1.0625 -2.0625 1.0625 C-3.0525 4.6925 -4.0425 8.3225 -5.0625 12.0625 C-7.7480594 9.3769406 -8.12299974 6.68628672 -9.0625 3.0625 C-8.258125 2.753125 -7.45375 2.44375 -6.625 2.125 C-1.57765152 0.03219697 -1.57765152 0.03219697 0 0 Z " fill="#CEDDE4" transform="translate(45.0625,32.9375)"/>
	<path d="M0 0 C2.61534535 1.7805219 4.97453209 3.5556526 7 6 C6.9375 9.875 6.9375 9.875 6 13 C5.34 13 4.68 13 4 13 C3.01 10.03 2.02 7.06 1 4 C-0.65 3.67 -2.3 3.34 -4 3 C-2.68 2.67 -1.36 2.34 0 2 C0 1.34 0 0.68 0 0 Z " fill="#D3E1E7" transform="translate(19,31)"/>
	<path d="M0 0 C0.66 0.33 1.32 0.66 2 1 C1.360625 2.03125 0.72125 3.0625 0.0625 4.125 C-1.81711371 7.38609658 -2.63126531 10.22046944 -3 14 C-5.05584287 11.7796897 -6 10.64219154 -6 7.5625 C-4.69118028 4.20864947 -2.65301514 2.38091102 0 0 Z " fill="#1C98D3" transform="translate(24,12)"/>
	<path d="M0 0 C0.33 0 0.66 0 1 0 C1.08132187 2.56314499 1.14064175 5.12368418 1.1875 7.6875 C1.22520508 8.7693457 1.22520508 8.7693457 1.26367188 9.87304688 C1.32630162 14.4450183 0.93333041 17.42393519 -2 21 C-2.99 21.33 -3.98 21.66 -5 22 C-3.16336634 17.27722772 -3.16336634 17.27722772 -1.96875 15.25 C-0.67258084 12.23954261 -0.5707712 9.51285333 -0.375 6.25 C-0.30023438 5.07953125 -0.22546875 3.9090625 -0.1484375 2.703125 C-0.09945312 1.81109375 -0.05046875 0.9190625 0 0 Z " fill="#C2C2C3" transform="translate(62,40)"/>
	<path d="M0 0 C0.66666667 1.33333333 1.33333333 2.66666667 2 4 C2.37125 4.680625 2.7425 5.36125 3.125 6.0625 C4 8 4 8 4 11 C0.125 9.125 0.125 9.125 -1 8 C-1.125 4.5 -1.125 4.5 -1 1 C-0.67 0.67 -0.34 0.34 0 0 Z " fill="#0B91D1" transform="translate(24,21)"/>
	<path d="M0 0 C1.5778125 0.1546875 1.5778125 0.1546875 3.1875 0.3125 C3.1875 0.6425 3.1875 0.9725 3.1875 1.3125 C1.764375 1.43625 1.764375 1.43625 0.3125 1.5625 C-2.88059716 1.95448425 -2.88059716 1.95448425 -4.0625 4.1875 C-4.31 4.88875 -4.5575 5.59 -4.8125 6.3125 C-5.8025 7.7975 -5.8025 7.7975 -6.8125 9.3125 C-7.4725 7.9925 -8.1325 6.6725 -8.8125 5.3125 C-5.88314862 1.76177106 -4.6956049 0.38488565 0 0 Z " fill="#299DD4" transform="translate(31.8125,14.6875)"/>
	<path d="M0 0 C2.97 1.98 2.97 1.98 6 4 C6 3.01 6 2.02 6 1 C6.66 1.33 7.32 1.66 8 2 C7.01 4.97 6.02 7.94 5 11 C4.67 9.68 4.34 8.36 4 7 C3.319375 6.319375 2.63875 5.63875 1.9375 4.9375 C1.298125 4.298125 0.65875 3.65875 0 3 C0 2.01 0 1.02 0 0 Z " fill="#B2D2E1" transform="translate(22,28)"/>
	<path d="M0 0 C0.66 0 1.32 0 2 0 C1.70703125 2.01822917 1.4140625 4.03645833 1.12109375 6.0546875 C0.8315703 8.08140667 0.8315703 8.08140667 2 10 C0.68 9.67 -0.64 9.34 -2 9 C-2.6875 7.3125 -2.6875 7.3125 -3 5 C-1.6875 2.25 -1.6875 2.25 0 0 Z " fill="#D4E0E5" transform="translate(28,19)"/>
	<path d="M0 0 C0.99 0.33 1.98 0.66 3 1 C1.71937515 2.7074998 0.38232443 4.37373596 -1 6 C-1.66 6 -2.32 6 -3 6 C-3 4.68 -3 3.36 -3 2 C-2.01 1.34 -1.02 0.68 0 0 Z " fill="#ADD0E1" transform="translate(38,30)"/>
</svg>
